<?xml version="1.0" standalone="no"?>
<!DOCTYPE svg PUBLIC "-//W3C//DTD SVG 20010904//EN"
 "http://www.w3.org/TR/2001/REC-SVG-20010904/DTD/svg10.dtd">
<svg version="1.0" xmlns="http://www.w3.org/2000/svg"
 width="490.000000pt" height="134.000000pt" viewBox="0 0 490.000000 134.000000"
 preserveAspectRatio="xMidYMid meet">

<g transform="translate(0.000000,134.000000) scale(0.100000,-0.100000)"
fill="#000000" stroke="none">
<path d="M1480 625 c0 -383 3 -585 10 -585 7 0 10 202 10 585 0 383 -3 585
-10 585 -7 0 -10 -202 -10 -585z"/>
<path d="M630 1130 c-11 -11 -20 -32 -20 -48 0 -25 -9 -31 -151 -96 -132 -60
-153 -67 -175 -57 -36 16 -58 14 -88 -10 -32 -25 -34 -64 -5 -95 20 -22 20
-23 3 -78 -12 -39 -23 -56 -34 -56 -10 0 -29 -9 -44 -21 -50 -40 -25 -119 39
-119 16 0 25 -12 39 -50 16 -45 16 -51 2 -66 -23 -22 -20 -70 6 -94 39 -36 98
-22 116 28 9 26 16 30 63 35 94 12 119 9 151 -18 16 -14 35 -25 43 -25 8 0 17
-24 25 -66 11 -59 11 -69 -6 -99 -15 -29 -16 -37 -5 -59 41 -76 154 -39 137
45 -5 25 2 35 62 89 52 47 74 60 99 60 21 0 40 9 57 28 23 23 33 27 71 24 29
-3 45 -9 45 -17 0 -20 40 -45 70 -45 34 0 70 34 70 66 0 32 42 54 71 36 30
-19 68 -14 94 13 14 13 25 29 25 34 0 27 -22 62 -48 75 -25 13 -30 23 -35 63
-5 44 -3 50 24 71 33 27 38 64 13 101 -14 19 -23 22 -64 19 -47 -3 -49 -2
-127 69 -68 61 -80 76 -80 104 0 58 -72 91 -115 52 -18 -16 -24 -15 -110 13
-83 27 -93 33 -100 59 -4 17 -15 36 -25 42 -25 19 -70 16 -93 -7z m84 -16 c9
-8 16 -23 16 -31 0 -21 -29 -53 -48 -53 -22 0 -52 30 -52 51 0 23 26 49 50 49
10 0 26 -7 34 -16z m133 -91 c81 -26 83 -28 83 -59 0 -31 -4 -34 -116 -88 -64
-31 -119 -56 -123 -56 -5 0 -15 8 -24 18 -15 16 -15 27 -6 78 15 86 17 91 45
98 14 4 27 13 30 21 8 20 15 19 111 -12z m-203 -2 c15 -16 15 -26 5 -90 -11
-64 -15 -74 -38 -82 -14 -6 -32 -17 -39 -27 -12 -15 -21 -14 -128 13 -112 29
-147 46 -128 65 11 11 285 138 300 139 6 1 18 -7 28 -18z m402 -26 c20 -30 11
-58 -22 -74 -22 -9 -31 -9 -50 4 -26 17 -33 62 -12 83 21 21 66 14 84 -13z
m141 -179 c38 -35 40 -41 31 -67 -8 -22 -19 -31 -51 -39 -23 -6 -73 -19 -111
-30 -65 -17 -71 -17 -93 -2 -12 10 -22 22 -23 27 0 6 15 50 33 98 26 67 41 93
63 106 l29 19 40 -37 c22 -20 59 -53 82 -75z m-918 94 c4 0 13 -11 19 -24 9
-19 7 -28 -9 -45 -11 -11 -27 -21 -36 -21 -23 0 -53 29 -53 51 0 21 39 51 58
44 8 -3 17 -5 21 -5z m704 -4 c16 -13 15 -19 -15 -104 -29 -85 -34 -93 -72
-111 l-40 -20 -73 40 c-63 35 -73 44 -73 68 0 25 9 32 118 84 64 31 122 56
127 56 6 0 18 -6 28 -13z m-539 -83 c56 -14 107 -31 114 -36 26 -20 13 -52
-37 -85 -41 -28 -52 -32 -69 -23 -12 6 -31 11 -44 11 -29 0 -102 110 -93 141
8 24 9 24 129 -8z m234 -5 c7 -7 12 -24 12 -38 0 -34 -17 -50 -52 -50 -18 0
-33 8 -44 25 -15 23 -15 27 0 50 18 27 63 34 84 13z m-343 -74 c19 -30 35 -58
35 -62 -1 -4 -9 -17 -19 -29 -29 -35 -99 -31 -128 6 -23 29 -23 29 -4 82 13
40 24 55 42 60 32 8 34 6 74 -57z m993 30 c23 -16 28 -48 13 -73 -13 -21 -71
-18 -87 4 -19 26 -18 32 11 60 28 29 33 30 63 9z m-480 -142 c3 -26 -5 -33
-97 -91 -87 -54 -103 -60 -122 -51 -18 10 -20 18 -16 48 3 21 9 65 13 99 6 59
8 63 43 80 l36 18 70 -37 c59 -31 70 -42 73 -66z m-228 70 c0 -7 -16 -113 -25
-169 -8 -45 -38 -44 -85 2 -33 32 -36 38 -30 80 4 40 10 49 54 80 38 27 52 32
67 24 11 -5 19 -13 19 -17z m631 -16 c15 -13 32 -26 37 -28 5 -1 12 -26 16
-54 6 -47 4 -51 -22 -71 l-27 -20 -125 47 c-99 38 -126 52 -128 68 -3 17 5 23
40 32 24 6 72 20 108 30 36 10 67 19 69 19 2 1 16 -10 32 -23z m-291 -26 c24
-24 25 -38 3 -62 -31 -34 -93 -13 -93 32 0 24 26 50 51 50 10 0 28 -9 39 -20z
m-756 -6 c19 -18 21 -55 4 -72 -15 -15 -61 -15 -76 0 -7 7 -12 24 -12 40 0 43
53 64 84 32z m250 0 c21 -20 20 -43 -1 -66 -29 -33 -93 -13 -93 28 0 49 59 73
94 38z m-108 -61 c21 -27 17 -42 -22 -89 -27 -33 -42 -44 -64 -44 -24 0 -30 6
-42 42 -13 39 -13 45 6 75 18 28 26 32 65 33 30 0 48 -5 57 -17z m564 -80 c0
-36 -3 -43 -19 -43 -11 0 -31 -14 -45 -30 l-25 -30 -72 10 c-39 6 -75 13 -80
16 -23 14 -1 37 88 92 96 60 98 60 125 44 24 -14 28 -23 28 -59z m166 51 c38
-14 93 -35 122 -46 47 -18 53 -23 50 -45 -5 -40 -31 -51 -69 -29 -20 12 -41
16 -59 12 -26 -5 -35 2 -84 56 -80 88 -75 96 40 52z m-577 -38 c28 -28 32 -39
26 -64 -6 -29 -8 -30 -97 -41 -126 -16 -145 2 -87 82 29 41 39 45 115 56 5 0
25 -14 43 -33z m529 -26 c68 -76 66 -100 -9 -100 -34 0 -49 4 -49 13 0 8 -9
22 -20 32 -15 13 -20 31 -20 67 0 43 2 48 23 48 14 0 40 -21 75 -60z m337 10
c29 -32 10 -74 -33 -78 -18 -2 -40 2 -48 9 -17 14 -18 61 -2 77 19 19 63 14
83 -8z m-743 -32 c28 -22 31 -55 9 -77 -25 -25 -54 -27 -75 -5 -23 22 -20 60
6 78 27 19 39 20 60 4z m316 -40 c21 -21 14 -66 -13 -84 -23 -15 -27 -15 -50
0 -25 16 -29 27 -25 56 5 38 61 55 88 28z m-632 -23 c29 -44 -40 -99 -82 -64
-17 14 -18 61 -2 77 18 18 69 10 84 -13z m864 7 c47 -38 -5 -102 -59 -72 -28
14 -27 55 1 74 28 20 31 20 58 -2z m-396 -18 c39 -6 50 -12 63 -37 l15 -30
-48 -44 c-76 -68 -84 -72 -129 -64 -39 6 -40 7 -50 66 -11 57 -10 61 14 88 26
29 49 32 135 21z m-72 -211 c9 -12 13 -27 9 -43 -5 -20 -14 -26 -42 -28 -29
-2 -37 1 -46 21 -23 50 43 91 79 50z"/>
<path d="M1640 639 l-1 -187 31 2 30 1 0 135 c0 83 -4 130 -9 121 -5 -8 -7
-20 -4 -28 3 -7 0 -13 -6 -13 -6 0 -11 -19 -11 -46 0 -25 4 -43 9 -39 6 3 10
-12 9 -35 0 -37 -16 -69 -19 -38 -1 7 -4 0 -8 -17 -4 -16 -6 22 -5 85 2 152 2
152 14 145 6 -3 10 -1 10 5 0 6 5 8 10 5 6 -3 10 1 10 10 0 10 -5 13 -12 9 -8
-5 -9 -2 -5 9 3 10 2 17 -2 17 -5 0 -12 -6 -14 -12 -4 -10 -6 -10 -6 0 -1 16
47 38 58 26 4 -5 16 -34 25 -64 50 -167 61 -187 69 -132 4 27 4 27 6 -3 0 -17
6 -36 13 -43 7 -7 8 -12 2 -12 -6 0 -15 5 -22 12 -15 15 -15 12 3 -50 13 -43
19 -51 33 -44 17 7 53 8 82 1 13 -3 15 22 18 179 l2 182 -30 0 -30 0 -1 -147
c-1 -166 -2 -190 -13 -200 -4 -5 -7 -1 -5 7 2 8 -4 29 -13 45 -9 17 -26 67
-38 112 -13 48 -26 80 -32 77 -6 -4 -8 1 -4 13 3 11 0 37 -7 58 l-14 39 -61 1
-61 1 -1 -187z m296 123 c5 -24 3 -37 -5 -40 -7 -2 -10 -30 -9 -80 l2 -77 6
65 c6 51 7 42 5 -43 -2 -59 -5 -111 -9 -114 -3 -4 -6 5 -7 18 l0 24 -10 -24
c-5 -13 -12 -21 -15 -18 -3 3 -1 15 6 26 6 12 8 27 4 33 -5 7 -3 8 6 3 10 -6
11 -1 6 21 -12 43 -13 175 -3 204 5 16 5 26 -2 28 -6 2 -11 8 -11 13 0 4 7 6
15 3 8 -3 17 -22 21 -42z m-169 -20 c2 -51 -11 -41 -20 16 -3 20 -1 32 6 32 7
0 13 -19 14 -48z m32 -70 c0 -14 -2 -13 -9 3 -8 18 -9 18 -10 -5 -1 -14 -4
-19 -7 -12 -7 18 5 44 17 37 5 -3 10 -14 9 -23z m40 -187 c0 -5 -4 -3 -9 5 -5
8 -9 22 -9 30 0 16 17 -16 18 -35z m18 -7 c-3 -8 -6 -5 -6 6 -1 11 2 17 5 13
3 -3 4 -12 1 -19z"/>
<path d="M2060 643 l0 -188 48 4 c26 3 39 6 29 9 -18 4 -18 4 0 17 17 13 17
14 1 20 -27 11 -26 105 1 112 13 3 17 11 14 24 -3 10 -9 16 -14 13 -12 -7 -22
39 -17 86 2 22 3 40 1 40 -1 0 -8 -13 -17 -30 -8 -16 -10 -30 -5 -30 5 0 9
-13 9 -30 0 -22 -5 -30 -17 -30 -15 0 -15 2 -4 9 12 8 13 14 2 37 -8 19 -9 30
-1 38 5 5 10 17 10 26 0 13 -1 13 -10 0 -8 -12 -10 -11 -10 7 0 17 6 23 23 23
12 0 51 0 87 0 100 2 107 1 92 -9 -11 -7 -11 -9 2 -14 12 -5 16 0 16 18 0 25
0 25 -104 25 -57 0 -111 3 -120 6 -14 5 -16 -15 -16 -183z m69 -7 c-3 -3 -16
-2 -29 1 -22 6 -22 7 -4 14 18 6 43 -5 33 -15z m-20 -34 c-1 -15 -2 -15 -6 1
-2 9 -9 14 -15 11 -7 -4 -8 -2 -4 5 10 15 26 4 25 -17z m11 -102 c5 -3 0 -11
-11 -18 -18 -11 -19 -10 -13 13 5 19 2 25 -10 25 -20 0 -21 19 -1 26 8 4 16
14 17 23 1 9 3 -2 5 -24 3 -22 8 -42 13 -45z"/>
<path d="M2450 812 c-52 -25 -70 -70 -70 -172 0 -102 18 -147 70 -172 37 -18
100 -24 100 -9 0 5 -6 9 -12 8 -29 -1 -48 3 -48 11 0 4 20 7 45 8 25 1 51 6
57 12 6 6 18 8 27 5 12 -3 12 -2 -2 7 -13 8 -22 8 -31 1 -19 -16 -72 -17 -100
-2 -14 8 -31 30 -37 48 -11 35 -8 152 5 188 6 16 6 17 -3 5 -9 -13 -11 -13
-11 0 0 11 -3 11 -12 2 -10 -10 -10 -15 2 -22 15 -9 7 -25 -13 -25 -19 0 -21
-83 -3 -101 19 -18 21 -34 5 -34 -6 0 -9 -5 -7 -11 2 -6 7 -10 11 -9 14 2 49
-49 44 -63 -4 -8 -6 -7 -6 3 -1 8 -11 21 -23 29 -18 10 -20 11 -10 0 17 -18
15 -34 -3 -19 -8 7 -15 21 -15 30 0 10 -6 20 -12 23 -10 3 -10 9 0 26 7 12 8
21 2 21 -6 0 -10 26 -10 60 0 58 15 110 32 110 4 0 8 7 8 15 0 18 16 20 26 3
5 -7 2 -8 -7 -3 -8 5 -11 4 -6 -1 5 -5 36 -10 70 -11 77 -2 96 -4 94 -14 -3
-11 17 -12 21 0 2 5 -9 17 -25 25 -23 13 -25 15 -8 15 31 1 48 -15 52 -46 2
-19 1 -24 -5 -15 -8 11 -10 11 -14 0 -8 -20 3 -118 13 -118 5 0 9 -5 9 -11 0
-5 -4 -8 -8 -5 -5 3 -13 -12 -18 -32 -10 -37 -10 -37 23 -39 40 -2 46 14 46
113 -1 125 -52 184 -160 184 -26 0 -64 -8 -83 -18z m45 -12 c3 -5 -1 -10 -9
-10 -9 0 -16 5 -16 10 0 6 4 10 9 10 6 0 13 -4 16 -10z m182 -106 c9 -51 5
-122 -8 -143 -8 -13 -9 -10 -5 11 4 15 1 38 -5 51 -7 16 -8 35 -1 60 7 25 7
37 -1 40 -6 2 -7 9 -3 16 11 17 14 11 23 -35z m-28 -9 l0 -20 -9 20 c-5 11 -9
27 -9 35 -1 13 0 13 9 0 5 -8 9 -24 9 -35z m-232 -47 c-2 -13 -4 -3 -4 22 0
25 2 35 4 23 2 -13 2 -33 0 -45z m229 -85 c-10 -10 -19 5 -10 18 6 11 8 11 12
0 2 -7 1 -15 -2 -18z"/>
<path d="M2833 814 c-18 -9 -30 -20 -27 -25 3 -5 1 -9 -5 -9 -16 0 -31 -69
-31 -140 0 -79 16 -140 35 -140 8 0 14 -5 13 -11 -2 -6 5 -16 15 -22 14 -9 19
-9 26 1 4 8 15 10 26 6 11 -4 16 -3 12 2 -3 6 12 7 36 5 l42 -5 -45 -7 c-25
-3 -48 -5 -52 -2 -5 2 -8 -1 -8 -6 0 -12 76 -13 125 -2 29 6 29 7 10 20 -15 9
-16 11 -2 7 9 -3 17 -1 17 4 0 6 -27 10 -60 10 -109 0 -127 24 -123 164 3 97
22 116 114 116 37 0 70 4 73 8 22 35 -133 56 -191 26z m94 -7 c3 -4 -2 -7 -12
-7 -10 0 -33 -11 -50 -25 -31 -23 -45 -24 -45 -3 0 5 6 6 13 2 9 -6 9 -4 -1 8
-10 13 -10 17 4 22 9 3 23 1 30 -5 11 -9 13 -9 9 2 -4 11 2 14 20 14 14 -1 28
-5 32 -8z m38 3 c-3 -5 -1 -10 6 -10 7 0 10 -3 6 -6 -3 -4 -14 -3 -24 0 -15 6
-15 8 -3 16 19 12 23 12 15 0z m-145 -140 c-4 -36 -11 -74 -15 -85 -8 -18 -7
-19 8 -6 10 8 17 9 17 3 0 -6 -4 -14 -10 -17 -5 -3 -10 -11 -10 -17 0 -6 3 -9
6 -5 3 3 16 -6 29 -21 17 -20 20 -30 13 -40 -9 -10 -14 -6 -26 18 -11 23 -17
28 -23 18 -8 -12 -13 -4 -10 14 0 4 -4 19 -9 33 -5 14 -6 25 -2 25 4 0 6 21 4
48 -2 35 0 43 7 32 9 -12 11 -9 11 13 0 16 -4 26 -10 22 -5 -3 -10 1 -10 10 0
11 5 15 15 11 8 -3 15 0 15 6 0 6 2 9 3 7 2 -2 1 -33 -3 -69z"/>
<path d="M3223 823 c18 -5 24 -23 7 -23 -6 0 -19 5 -30 12 -16 10 -24 9 -47
-8 -45 -33 -57 -70 -57 -164 0 -108 18 -152 75 -174 81 -33 205 -7 203 42 0
12 5 22 12 22 16 0 29 63 19 87 -5 12 -9 14 -12 6 -8 -22 -18 -14 -20 14 -1
19 1 22 8 12 7 -11 9 -10 9 6 0 11 -5 27 -10 35 -8 12 -10 12 -11 -5 -1 -16
-2 -16 -8 5 -5 14 -4 33 2 44 6 12 6 16 -1 12 -6 -3 -13 -2 -16 3 -9 14 20 21
33 8 6 -6 11 -25 12 -42 1 -16 5 -41 9 -55 8 -25 8 -24 9 5 2 76 -50 162 -91
152 -10 -3 -16 -1 -12 4 3 5 -18 8 -48 8 -29 -1 -45 -3 -35 -6z m62 -12 c3 -5
1 -12 -5 -16 -5 -3 -10 1 -10 9 0 18 6 21 15 7z m-85 -11 c8 -5 11 -12 7 -17
-5 -4 -12 -1 -17 7 -8 12 -10 10 -10 -7 0 -13 -4 -23 -9 -23 -13 0 -25 -39
-23 -70 2 -25 2 -25 -8 -2 -12 29 -15 28 -15 -7 0 -19 4 -27 13 -24 17 7 15
-7 -5 -29 -14 -15 -14 -19 -3 -16 11 2 15 -7 15 -34 0 -20 4 -34 9 -30 5 3 7
-2 3 -11 -4 -11 -1 -17 8 -17 8 0 15 -4 15 -9 0 -5 12 -14 28 -19 21 -8 23
-11 7 -11 -17 -1 -17 -3 -5 -11 20 -13 4 -13 -21 0 -10 6 -19 17 -19 25 0 8
-4 15 -10 15 -5 0 -7 -8 -3 -17 5 -15 4 -16 -8 -5 -9 8 -14 32 -13 64 0 36 -2
45 -7 29 -5 -11 -10 -21 -12 -21 -2 0 -4 40 -4 89 0 57 4 89 11 88 5 -1 13 12
17 28 4 17 7 26 8 20 1 -5 6 -2 12 8 11 19 18 21 39 7z m134 -12 c-5 -8 -2 -9
9 -5 10 3 17 2 17 -2 0 -15 -32 -22 -46 -10 -20 17 -17 29 7 29 13 0 18 -4 13
-12z m-25 -25 c26 -22 57 -131 41 -147 -5 -5 -10 -22 -10 -37 0 -44 -39 -81
-83 -81 -80 0 -103 41 -95 173 3 60 8 74 27 90 29 24 92 25 120 2z m81 -204
c0 -3 -6 -12 -14 -19 -8 -6 -12 -18 -9 -26 3 -9 -1 -14 -12 -14 -9 0 -14 -4
-11 -9 6 -10 -45 -31 -75 -31 -28 0 -30 16 -3 18 14 1 32 9 40 17 9 8 22 15
31 15 10 0 14 6 10 20 -3 11 -1 23 4 26 5 3 7 10 4 15 -4 5 -3 14 1 21 5 7 11
5 21 -7 7 -11 13 -22 13 -26z"/>
<path d="M4516 822 c-3 -6 16 -48 44 -95 27 -47 50 -90 50 -96 0 -6 -23 -47
-51 -91 -28 -44 -49 -83 -46 -86 2 -3 16 -2 31 2 18 4 35 23 58 65 18 32 38
61 45 63 8 3 23 -15 40 -47 15 -29 28 -46 31 -38 2 7 -2 17 -9 22 -11 7 -10
12 5 26 18 17 19 17 13 0 -4 -11 -3 -16 3 -12 13 8 13 -11 -1 -36 -7 -14 -7
-24 0 -32 12 -15 71 -21 71 -8 0 13 -17 23 -23 14 -2 -5 -2 -2 -1 5 2 7 -17
46 -43 87 -45 74 -74 93 -87 59 -3 -8 -2 -13 3 -9 5 3 16 -1 24 -9 8 -8 16
-13 18 -12 10 10 26 -22 18 -35 -8 -11 -14 -8 -30 14 -11 15 -25 25 -29 22 -5
-3 -14 4 -20 16 -8 15 -9 19 -1 15 6 -4 11 -3 11 3 0 5 3 18 6 28 5 16 4 16
-10 -1 -19 -23 -20 -17 -5 17 9 20 6 33 -22 83 -18 32 -33 60 -33 61 -4 8 -55
12 -60 5z m44 -21 c0 8 6 4 15 -8 8 -12 12 -28 9 -36 -8 -21 13 -57 32 -57 18
0 14 -22 -6 -28 -7 -3 -10 0 -6 7 4 6 3 11 -2 11 -6 0 -25 28 -42 62 -20 38
-26 57 -16 49 13 -11 16 -11 16 0z m56 -88 c-4 -4 -11 -1 -16 7 -16 25 -11 35
7 17 9 -9 13 -20 9 -24z m-18 -184 c-18 -32 -39 -59 -45 -59 -19 0 -16 24 5
51 10 13 22 32 25 42 4 10 11 15 17 12 5 -3 10 1 10 10 0 9 5 13 10 10 6 -4
-3 -30 -22 -66z m153 -50 c-9 -22 -10 -22 -10 -3 -1 11 2 24 6 27 12 12 14 0
4 -24z"/>
<path d="M4575 529 c-4 -6 -5 -12 -2 -15 2 -3 7 2 10 11 7 17 1 20 -8 4z"/>
<path d="M4727 802 c-14 -34 -59 -104 -72 -115 -7 -6 -6 -10 3 -14 6 -2 10 -9
6 -14 -3 -5 0 -9 6 -9 7 0 10 7 6 15 -3 9 3 30 14 48 11 17 20 25 20 17 0 -13
1 -13 11 0 8 12 9 11 6 -5 -2 -11 -8 -19 -15 -18 -6 2 -9 -4 -6 -11 3 -8 -1
-16 -10 -18 -10 -2 -12 -8 -8 -16 6 -8 24 15 56 69 27 44 46 82 43 85 -2 3
-14 7 -26 9 -16 3 -25 -3 -34 -23z m19 -24 c-1 -21 -7 -32 -19 -34 -9 -1 -15
1 -12 5 2 5 9 20 14 35 14 35 19 33 17 -6z m24 11 c-7 -11 -14 -19 -16 -16 -7
7 7 37 17 37 6 0 5 -9 -1 -21z"/>
<path d="M3511 636 l1 -184 27 2 c24 3 26 7 31 67 5 63 5 64 37 67 18 2 42 -2
53 -8 12 -6 25 -8 28 -4 4 4 1 9 -6 11 -6 3 -9 9 -6 15 4 6 -1 8 -14 4 -12 -4
-23 -2 -28 5 -4 8 -3 9 4 5 7 -4 12 -3 12 3 0 5 -17 11 -37 13 l-38 3 0 70 0
70 59 -1 c49 -1 63 -6 78 -24 10 -12 18 -31 18 -41 0 -30 -21 -67 -42 -72 -19
-5 -19 -6 -2 -33 11 -16 20 -22 22 -14 3 7 -1 16 -8 20 -9 5 -3 16 19 37 17
17 31 35 31 41 0 5 6 12 14 15 10 4 12 -3 10 -25 -5 -36 -12 -50 -25 -43 -5 4
-9 1 -9 -4 0 -6 -6 -11 -14 -11 -11 0 -11 -8 -3 -40 13 -46 29 -55 21 -10 -5
23 0 36 20 60 18 22 26 43 26 70 0 97 -35 120 -179 120 l-100 0 0 -184z m223
165 c5 -1 6 -4 3 -8 -4 -3 2 -12 13 -20 26 -18 26 -43 0 -43 -11 0 -20 4 -20
9 0 4 -10 19 -22 32 -19 20 -31 24 -68 21 -81 -4 -90 -9 -91 -45 0 -17 -4 -41
-8 -52 -6 -15 -9 -6 -12 33 -2 30 -2 58 1 62 5 9 131 18 175 14 11 -2 24 -3
29 -3z m-176 -134 c-3 -26 18 -52 48 -60 13 -3 11 -5 -9 -6 -45 -2 -57 -21
-50 -80 4 -38 2 -51 -7 -51 -10 0 -11 17 -8 70 3 40 1 73 -4 76 -6 4 -6 10 1
17 14 14 14 30 1 22 -5 -3 -10 -1 -10 4 0 6 7 11 15 11 8 0 15 5 15 10 0 6 3
10 6 10 3 0 4 -11 2 -23z"/>
<path d="M3843 803 c-3 -8 -4 -15 -2 -17 9 -8 120 -13 113 -6 -5 5 -27 10 -49
13 -30 3 -24 4 22 5 l62 2 -20 -34 c-17 -29 -19 -50 -18 -170 1 -75 6 -139 11
-142 18 -11 59 6 56 23 -5 25 -28 28 -28 4 0 -12 -4 -21 -9 -21 -5 0 -10 52
-10 115 -1 99 1 115 16 124 17 8 18 2 17 -92 0 -58 2 -91 7 -77 4 14 7 69 8
122 1 88 -1 97 -19 103 -11 3 -20 11 -20 16 0 6 5 7 10 4 6 -3 10 -2 10 3 0 8
42 32 56 32 12 0 -10 -22 -30 -30 -15 -6 -5 -8 34 -7 54 2 70 10 70 34 0 19
-280 15 -287 -4z m277 3 c0 -9 -30 -14 -35 -6 -4 6 3 10 14 10 12 0 21 -2 21
-4z m-125 -66 c-3 -5 -10 -10 -16 -10 -5 0 -9 5 -9 10 0 6 7 10 16 10 8 0 12
-4 9 -10z"/>
<path d="M4200 637 l0 -184 113 2 c61 1 118 3 125 3 18 3 15 39 -4 46 -21 8
-95 -4 -89 -15 3 -4 0 -11 -6 -15 -6 -3 -15 0 -20 7 -7 11 -9 11 -9 1 0 -10
-8 -12 -30 -7 -20 4 -30 3 -30 -5 0 -7 -9 -2 -19 11 -25 31 -10 47 23 25 14
-9 31 -16 38 -15 7 0 3 5 -9 11 -37 18 -35 109 2 117 11 2 23 8 27 15 6 8 8 7
8 -1 0 -9 16 -13 46 -13 41 0 45 2 42 23 -3 19 -9 22 -50 22 -25 0 -44 -3 -41
-7 6 -10 -1 -10 -30 1 -22 9 -26 17 -29 64 l-3 54 95 1 c87 0 95 2 98 20 3 19
-4 20 -122 21 l-126 1 0 -183z m122 159 l93 0 -87 -3 c-78 -3 -88 -6 -94 -25
-3 -11 -2 -23 3 -27 5 -3 9 -19 8 -36 -1 -16 4 -35 11 -43 16 -16 18 -38 4
-47 -5 -3 -10 -15 -10 -26 0 -27 -28 -24 -32 4 -4 29 3 225 8 212 2 -6 43 -10
96 -9z m-27 -156 c3 -5 1 -10 -4 -10 -6 0 -11 5 -11 10 0 6 2 10 4 10 3 0 8
-4 11 -10z m100 0 c3 -6 -5 -10 -19 -10 -14 0 -28 5 -31 10 -3 6 5 10 19 10
14 0 28 -4 31 -10z m25 -150 c-12 -8 -12 -10 -1 -10 8 0 12 -3 8 -6 -3 -3 -15
-3 -28 1 -17 6 -19 9 -8 16 8 5 21 9 29 9 13 0 13 -1 0 -10z"/>
<path d="M2160 780 c0 -6 19 -7 48 -3 64 8 66 13 4 13 -29 0 -52 -4 -52 -10z"/>
<path d="M2170 659 c0 -12 30 -18 60 -12 18 3 30 1 30 -5 0 -6 -19 -13 -42
-15 l-43 -4 48 -1 c41 -2 47 1 47 18 0 12 -7 20 -17 21 -58 4 -83 3 -83 -2z"/>
<path d="M3703 573 c-7 -3 -13 -14 -13 -26 0 -30 22 -87 35 -88 5 0 20 -2 33
-3 23 -3 26 2 16 28 -3 9 -10 13 -15 10 -5 -3 -6 2 -3 10 4 10 1 16 -9 16 -10
0 -13 -8 -9 -27 5 -25 4 -26 -10 -12 -23 22 -32 60 -18 69 16 10 9 28 -7 23z"/>
<path d="M2641 514 c10 -13 10 -17 -2 -25 -8 -5 -20 -7 -26 -4 -7 2 -13 -2
-13 -10 0 -20 6 -19 41 6 26 18 43 49 19 34 -5 -3 -10 -1 -10 4 0 6 -5 11 -11
11 -8 0 -7 -5 2 -16z"/>
<path d="M2160 501 c0 -5 10 -12 23 -14 l22 -4 -22 -2 c-13 0 -23 -5 -23 -11
0 -15 97 -13 103 3 4 10 6 10 6 0 2 -25 31 -13 31 12 0 24 -2 25 -70 25 -38 0
-70 -4 -70 -9z"/>
<path d="M2567 474 c-8 -8 1 -24 12 -24 4 0 8 7 8 15 0 16 -9 20 -20 9z"/>
<path d="M3379 383 c-13 -17 -13 -17 6 -3 11 8 22 16 24 17 2 2 0 3 -6 3 -6 0
-17 -8 -24 -17z"/>
<path d="M3651 381 c18 -14 25 -33 30 -77 l6 -59 2 51 c1 51 -25 104 -51 104
-6 0 0 -9 13 -19z"/>
<path d="M4119 303 c5 -100 8 -92 13 30 2 40 -1 67 -7 67 -6 0 -8 -36 -6 -97z"/>
<path d="M4158 393 c6 -2 18 -2 25 0 6 3 1 5 -13 5 -14 0 -19 -2 -12 -5z"/>
<path d="M4411 381 c13 -11 26 -17 29 -14 6 6 -30 33 -43 33 -5 0 1 -9 14 -19z"/>
<path d="M4504 389 c-4 -7 -3 -9 4 -5 6 3 15 -2 21 -11 6 -10 11 -13 11 -7 0
20 -27 37 -36 23z"/>
<path d="M4706 384 c-9 -8 -16 -23 -15 -32 0 -14 2 -14 6 -2 3 8 12 23 21 33
19 21 9 23 -12 1z"/>
<path d="M3546 368 c-28 -40 -17 -137 18 -160 24 -16 24 -7 1 17 -20 19 -25
34 -25 72 0 28 7 58 16 71 8 12 13 22 10 22 -3 0 -12 -10 -20 -22z"/>
<path d="M3742 298 c-1 -54 1 -98 6 -98 4 0 6 30 4 67 -5 119 -9 131 -10 31z"/>
<path d="M4013 320 c0 -41 2 -58 4 -37 2 20 2 54 0 75 -2 20 -4 3 -4 -38z"/>
<path d="M4234 300 c0 -52 1 -74 3 -47 2 26 2 68 0 95 -2 26 -3 4 -3 -48z"/>
<path d="M4310 375 c-7 -9 -11 -17 -9 -20 3 -2 10 5 17 15 14 24 10 26 -8 5z"/>
<path d="M4631 344 c0 -11 3 -14 6 -6 3 7 2 16 -1 19 -3 4 -6 -2 -5 -13z"/>
<path d="M4442 330 c0 -14 2 -19 5 -12 2 6 2 18 0 25 -3 6 -5 1 -5 -13z"/>
<path d="M4565 300 c14 -27 28 -50 30 -50 3 0 -6 23 -20 50 -14 28 -28 50 -30
50 -3 0 6 -22 20 -50z"/>
<path d="M4293 295 c0 -22 2 -30 4 -17 2 12 2 30 0 40 -3 9 -5 -1 -4 -23z"/>
<path d="M4709 318 c7 -10 23 -17 35 -17 20 1 20 2 1 6 -11 3 -27 10 -35 17
-13 10 -13 9 -1 -6z"/>
<path d="M4633 275 c0 -27 2 -38 4 -22 2 15 2 37 0 50 -2 12 -4 0 -4 -28z"/>
<path d="M3408 303 c7 -3 16 -2 19 1 4 3 -2 6 -13 5 -11 0 -14 -3 -6 -6z"/>
<path d="M3463 289 c9 -5 17 -20 17 -31 0 -12 -8 -30 -17 -41 -17 -19 -17 -20
5 -8 35 19 25 92 -12 91 -6 0 -3 -5 7 -11z"/>
<path d="M4793 290 c22 -14 22 -48 0 -72 -16 -18 -16 -18 0 -12 36 13 33 82
-4 91 -8 3 -7 0 4 -7z"/>
<path d="M4440 269 c0 -11 -5 -30 -11 -42 -10 -21 -10 -21 5 -3 15 18 22 66
11 66 -3 0 -5 -9 -5 -21z"/>
<path d="M4300 241 c0 -10 39 -46 43 -40 2 2 -7 14 -20 26 -13 12 -23 19 -23
14z"/>
<path d="M3665 229 c-4 -6 -5 -12 -2 -15 2 -3 7 2 10 11 7 17 1 20 -8 4z"/>
<path d="M3880 231 c0 -6 4 -13 10 -16 6 -3 7 1 4 9 -7 18 -14 21 -14 7z"/>
<path d="M3996 223 c-6 -14 -5 -15 5 -6 7 7 10 15 7 18 -3 3 -9 -2 -12 -12z"/>
<path d="M4616 208 c3 -4 9 -8 15 -8 5 0 9 4 9 8 0 5 -7 9 -15 9 -8 0 -12 -4
-9 -9z"/>
<path d="M3788 203 c12 -2 30 -2 40 0 9 3 -1 5 -23 4 -22 0 -30 -2 -17 -4z"/>
</g>
</svg>
